<?xml version="1.0" standalone="no"?>
<svg xmlns:xlink="http://www.w3.org/1999/xlink" id="wave" style="transform:rotate(180deg); transition: 0.3s" viewBox="0 0 1440 100" version="1.1" xmlns="http://www.w3.org/2000/svg"><defs><linearGradient id="sw-gradient-0" x1="0" x2="0" y1="1" y2="0"><stop stop-color="rgba(228, 197, 158, 1)" offset="0%"/><stop stop-color="rgba(228, 197, 158, 1)" offset="100%"/></linearGradient></defs><path style="transform:translate(0, 0px); opacity:1" fill="url(#sw-gradient-0)" d="M0,70L144,50L288,50L432,10L576,80L720,30L864,80L1008,40L1152,0L1296,50L1440,90L1584,0L1728,80L1872,40L2016,30L2160,90L2304,60L2448,60L2592,20L2736,50L2880,40L3024,10L3168,40L3312,60L3456,60L3456,100L3312,100L3168,100L3024,100L2880,100L2736,100L2592,100L2448,100L2304,100L2160,100L2016,100L1872,100L1728,100L1584,100L1440,100L1296,100L1152,100L1008,100L864,100L720,100L576,100L432,100L288,100L144,100L0,100Z"/></svg>